<svg width="70" height="70" viewBox="0 0 70 70" fill="none" xmlns="http://www.w3.org/2000/svg">
<path fill-rule="evenodd" clip-rule="evenodd" d="M52.9268 34.8345C52.9268 44.9709 44.9007 53.1881 35 53.1881C25.0993 53.1881 17.0732 44.9709 17.0732 34.8345C17.0732 24.698 25.0993 16.4808 35 16.4808C44.9007 16.4808 52.9268 24.698 52.9268 34.8345ZM35 48.696C42.4774 48.696 48.5391 42.49 48.5391 34.8345C48.5391 27.179 42.4774 20.973 35 20.973C27.5225 20.973 21.4608 27.179 21.4608 34.8345C21.4608 42.49 27.5225 48.696 35 48.696Z" fill="#013A65"/>
<path fill-rule="evenodd" clip-rule="evenodd" d="M64.0244 34.8345C64.0244 50.6285 51.0297 63.4321 35 63.4321C18.9703 63.4321 5.97562 50.6285 5.97562 34.8345C5.97562 19.0405 18.9703 6.23694 35 6.23694C51.0297 6.23694 64.0244 19.0405 64.0244 34.8345ZM35 55.9556C46.8389 55.9556 56.4363 46.4993 56.4363 34.8345C56.4363 23.1696 46.8389 13.7134 35 13.7134C23.1611 13.7134 13.5637 23.1696 13.5637 34.8345C13.5637 46.4993 23.1611 55.9556 35 55.9556Z" fill="#005B92"/>
<path d="M61.6888 24.2037L61.3742 22.9454L62.2971 23.2338C62.3528 23.2512 62.4103 23.2621 62.4685 23.2662L66.7608 23.5732C67.4132 23.6199 67.9613 24.0812 68.1187 24.7159L69.0944 28.6501C69.2549 29.2973 68.9718 29.9731 68.3981 30.3129L64.6782 32.5155C64.6151 32.5528 64.5578 32.5991 64.5081 32.653L63.828 33.3897L63.5134 32.0684L61.6888 24.2037Z" fill="#005B92"/>
<path d="M61.6888 24.2037L61.3742 22.9454L62.2971 23.2338C62.3528 23.2512 62.4103 23.2621 62.4685 23.2662L66.7608 23.5732C67.4132 23.6199 67.9613 24.0812 68.1187 24.7159L69.0944 28.6501C69.2549 29.2973 68.9718 29.9731 68.3981 30.3129L64.6782 32.5155C64.6151 32.5528 64.5578 32.5991 64.5081 32.653L63.828 33.3897L63.5134 32.0684L61.6888 24.2037Z" fill="#005B92"/>
<path d="M63.4335 39.0643L63.7917 37.8176L64.4459 38.5296C64.4854 38.5726 64.5297 38.6108 64.5779 38.6436L68.1388 41.06C68.6799 41.4272 68.9232 42.1011 68.7414 42.7293L67.6145 46.6228C67.4291 47.2633 66.8455 47.7064 66.1788 47.7129L61.8559 47.7552C61.7826 47.7559 61.7098 47.7673 61.6397 47.789L60.6821 48.0858L61.0719 46.7847L63.4335 39.0643Z" fill="#005B92"/>
<path d="M63.4335 39.0643L63.7917 37.8176L64.4459 38.5296C64.4854 38.5726 64.5297 38.6108 64.5779 38.6436L68.1388 41.06C68.6799 41.4272 68.9232 42.1011 68.7414 42.7293L67.6145 46.6228C67.4291 47.2633 66.8455 47.7064 66.1788 47.7129L61.8559 47.7552C61.7826 47.7559 61.7098 47.7673 61.6397 47.789L60.6821 48.0858L61.0719 46.7847L63.4335 39.0643Z" fill="#005B92"/>
<path d="M57.6109 52.6179L58.5465 51.7195L58.7549 52.6637C58.7674 52.7207 58.7866 52.776 58.8119 52.8285L60.6785 56.7059C60.9622 57.2952 60.8343 58.0001 60.3616 58.4522L57.4325 61.2538C56.9506 61.7147 56.2234 61.805 55.6435 61.4759L51.8836 59.3424C51.8198 59.3062 51.7511 59.2795 51.6797 59.2631L50.7024 59.0391L51.6927 58.1095L57.6109 52.6179Z" fill="#005B92"/>
<path d="M57.6109 52.6179L58.5465 51.7195L58.7549 52.6637C58.7674 52.7207 58.7866 52.776 58.8119 52.8285L60.6785 56.7059C60.9622 57.2952 60.8343 58.0001 60.3616 58.4522L57.4325 61.2538C56.9506 61.7147 56.2234 61.805 55.6435 61.4759L51.8836 59.3424C51.8198 59.3062 51.7511 59.2795 51.6797 59.2631L50.7024 59.0391L51.6927 58.1095L57.6109 52.6179Z" fill="#005B92"/>
<path d="M45.6066 61.5071L46.8686 61.2074L46.5693 62.1268C46.5512 62.1823 46.5397 62.2397 46.5348 62.2978L46.1768 66.5862C46.1224 67.2379 45.6547 67.7806 45.0181 67.9304L41.0726 68.8593C40.4236 69.0121 39.7511 68.721 39.4182 68.1433L37.26 64.3975C37.2234 64.3339 37.1777 64.2761 37.1245 64.2257L36.3959 63.537L37.7208 63.2381L45.6066 61.5071Z" fill="#005B92"/>
<path d="M45.6066 61.5071L46.8686 61.2074L46.5693 62.1268C46.5512 62.1823 46.5397 62.2397 46.5348 62.2978L46.1768 66.5862C46.1224 67.2379 45.6547 67.7806 45.0181 67.9304L41.0726 68.8593C40.4236 69.0121 39.7511 68.721 39.4182 68.1433L37.26 64.3975C37.2234 64.3339 37.1777 64.2761 37.1245 64.2257L36.3959 63.537L37.7208 63.2381L45.6066 61.5071Z" fill="#005B92"/>
<path d="M30.8359 63.3506L32.0788 63.7217L31.36 64.3685C31.3167 64.4075 31.278 64.4514 31.2447 64.4993L28.7916 68.035C28.4188 68.5723 27.7424 68.8085 27.1161 68.6202L23.2345 67.4531C22.5959 67.261 22.1589 66.6729 22.1593 66.0061L22.1618 61.683C22.1618 61.6097 22.1512 61.5368 22.1302 61.4666L21.8434 60.5059L23.1403 60.9091L30.8359 63.3506Z" fill="#005B92"/>
<path d="M30.8359 63.3506L32.0788 63.7217L31.36 64.3685C31.3167 64.4075 31.278 64.4514 31.2447 64.4993L28.7916 68.035C28.4188 68.5723 27.7424 68.8085 27.1161 68.6202L23.2345 67.4531C22.5959 67.261 22.1589 66.6729 22.1593 66.0061L22.1618 61.683C22.1618 61.6097 22.1512 61.5368 22.1302 61.4666L21.8434 60.5059L23.1403 60.9091L30.8359 63.3506Z" fill="#005B92"/>
<path d="M17.1712 57.3325L18.0719 58.2659L17.1282 58.4766C17.0713 58.4893 17.016 58.5086 16.9636 58.534L13.0909 60.4105C12.5023 60.6957 11.7971 60.5696 11.3439 60.0981L8.53477 57.1761C8.07264 56.6954 7.98052 55.9685 8.30813 55.3877L10.4321 51.6224C10.4681 51.5585 10.4946 51.4898 10.5108 51.4183L10.7324 50.4405L11.6645 51.4283L17.1712 57.3325Z" fill="#005B92"/>
<path d="M17.1712 57.3325L18.0719 58.2659L17.1282 58.4766C17.0713 58.4893 17.016 58.5086 16.9636 58.534L13.0909 60.4105C12.5023 60.6957 11.7971 60.5696 11.3439 60.0981L8.53477 57.1761C8.07264 56.6954 7.98052 55.9685 8.30813 55.3877L10.4321 51.6224C10.4681 51.5585 10.4946 51.4898 10.5108 51.4183L10.7324 50.4405L11.6645 51.4283L17.1712 57.3325Z" fill="#005B92"/>
<path d="M8.33613 45.3805L8.65491 46.6378L7.73106 46.3525C7.67534 46.3353 7.6178 46.3246 7.55962 46.3206L3.26625 46.0279C2.61377 45.9834 2.06409 45.5239 1.90457 44.8896L0.915886 40.9588C0.753237 40.3121 1.034 39.6353 1.60665 39.2937L5.31922 37.0788C5.38218 37.0412 5.43933 36.9947 5.48887 36.9406L6.16647 36.2017L6.48543 37.5219L8.33613 45.3805Z" fill="#005B92"/>
<path d="M8.33613 45.3805L8.65491 46.6378L7.73106 46.3525C7.67534 46.3353 7.6178 46.3246 7.55962 46.3206L3.26625 46.0279C2.61377 45.9834 2.06409 45.5239 1.90457 44.8896L0.915886 40.9588C0.753237 40.3121 1.034 39.6353 1.60665 39.2937L5.31922 37.0788C5.38218 37.0412 5.43933 36.9947 5.48887 36.9406L6.16647 36.2017L6.48543 37.5219L8.33613 45.3805Z" fill="#005B92"/>
<path d="M6.80856 30.6666L6.46048 31.9161L5.80052 31.2094C5.76071 31.1668 5.7161 31.1289 5.66758 31.0966L2.08717 28.7093C1.54304 28.3464 1.29431 27.6746 1.47101 27.0449L2.56618 23.1424C2.74634 22.5003 3.32628 22.0525 3.99299 22.0406L8.31538 21.9631C8.38867 21.9618 8.46139 21.9498 8.53123 21.9275L9.48643 21.6229L9.10724 22.9272L6.80856 30.6666Z" fill="#005B92"/>
<path d="M6.80856 30.6666L6.46048 31.9161L5.80052 31.2094C5.76071 31.1668 5.7161 31.1289 5.66758 31.0966L2.08717 28.7093C1.54304 28.3464 1.29431 27.6746 1.47101 27.0449L2.56618 23.1424C2.74634 22.5003 3.32628 22.0525 3.99299 22.0406L8.31538 21.9631C8.38867 21.9618 8.46139 21.9498 8.53123 21.9275L9.48643 21.6229L9.10724 22.9272L6.80856 30.6666Z" fill="#005B92"/>
<path d="M12.5098 17.0908L11.5649 17.9794L11.3664 17.0331C11.3544 16.976 11.3358 16.9205 11.3111 16.8677L9.48464 12.9712C9.20706 12.379 9.34224 11.6755 9.81951 11.2283L12.7775 8.45711C13.2641 8.00121 13.9921 7.91846 14.5686 8.25353L18.3063 10.4258C18.3697 10.4626 18.4381 10.4901 18.5094 10.5072L19.4843 10.7413L18.4844 11.6606L12.5098 17.0908Z" fill="#005B92"/>
<path d="M12.5098 17.0908L11.5649 17.9794L11.3664 17.0331C11.3544 16.976 11.3358 16.9205 11.3111 16.8677L9.48464 12.9712C9.20706 12.379 9.34224 11.6755 9.81951 11.2283L12.7775 8.45711C13.2641 8.00121 13.9921 7.91846 14.5686 8.25353L18.3063 10.4258C18.3697 10.4626 18.4381 10.4901 18.5094 10.5072L19.4843 10.7413L18.4844 11.6606L12.5098 17.0908Z" fill="#005B92"/>
<path d="M24.5059 8.31335L23.2476 8.62831L23.5358 7.70533C23.5532 7.64966 23.564 7.59216 23.5682 7.53398L23.874 3.24153C23.9204 2.58918 24.3816 2.0409 25.0163 1.8833L28.9501 0.906546C29.5973 0.74586 30.2732 1.02868 30.6131 1.60235L32.8168 5.32163C32.8542 5.3847 32.9005 5.44199 32.9544 5.4917L33.6913 6.17153L32.3701 6.48649L24.5059 8.31335Z" fill="#005B92"/>
<path d="M24.5059 8.31335L23.2476 8.62831L23.5358 7.70533C23.5532 7.64966 23.564 7.59216 23.5682 7.53398L23.874 3.24153C23.9204 2.58918 24.3816 2.0409 25.0163 1.8833L28.9501 0.906546C29.5973 0.74586 30.2732 1.02868 30.6131 1.60235L32.8168 5.32163C32.8542 5.3847 32.9005 5.44199 32.9544 5.4917L33.6913 6.17153L32.3701 6.48649L24.5059 8.31335Z" fill="#005B92"/>
<path d="M39.1125 6.45184L37.872 6.07273L38.5949 5.43059C38.6385 5.39185 38.6775 5.3482 38.711 5.30049L41.1868 1.78068C41.5631 1.24575 42.2409 1.01384 42.866 1.20618L46.7401 2.39823C47.3774 2.59434 47.8106 3.18525 47.806 3.85205L47.7757 8.17503C47.7752 8.24834 47.7854 8.32133 47.8059 8.3917L48.0866 9.35419L46.7922 8.94263L39.1125 6.45184Z" fill="#005B92"/>
<path d="M39.1125 6.45184L37.872 6.07273L38.5949 5.43059C38.6385 5.39185 38.6775 5.3482 38.711 5.30049L41.1868 1.78068C41.5631 1.24575 42.2409 1.01384 42.866 1.20618L46.7401 2.39823C47.3774 2.59434 47.8106 3.18525 47.806 3.85205L47.7757 8.17503C47.7752 8.24834 47.7854 8.32133 47.8059 8.3917L48.0866 9.35419L46.7922 8.94263L39.1125 6.45184Z" fill="#005B92"/>
<path d="M52.7684 12.428L51.8542 11.5078L52.7947 11.2834C52.8515 11.2698 52.9064 11.2498 52.9586 11.2236L56.8036 9.29113C57.388 8.99745 58.0949 9.11332 58.555 9.57817L61.4061 12.4592C61.8752 12.9331 61.9778 13.6586 61.6587 14.2441L59.5895 18.0398C59.5544 18.1042 59.5289 18.1733 59.5138 18.245L59.3064 19.226L58.3601 18.2517L52.7684 12.428Z" fill="#005B92"/>
<path d="M52.7684 12.428L51.8542 11.5078L52.7947 11.2834C52.8515 11.2698 52.9064 11.2498 52.9586 11.2236L56.8036 9.29113C57.388 8.99745 58.0949 9.11332 58.555 9.57817L61.4061 12.4592C61.8752 12.9331 61.9778 13.6586 61.6587 14.2441L59.5895 18.0398C59.5544 18.1042 59.5289 18.1733 59.5138 18.245L59.3064 19.226L58.3601 18.2517L52.7684 12.428Z" fill="#005B92"/>
</svg>
